<svg width="2252" height="2252" viewBox="0 0 2252 2252" fill="none" xmlns="http://www.w3.org/2000/svg">
<path d="M66.2352 9.31445L66.2353 2244.76M132.471 9.31445V2244.76M198.706 9.31445V2244.76M264.941 9.31445V2244.76M331.176 9.31445V2244.76M397.412 9.31445V2244.76M463.647 9.31445V2244.76M529.882 9.31445V2244.76M596.118 9.31445V2244.76M662.353 9.31445V2244.76M728.588 9.31445V2244.76M794.823 9.31445V2244.76M861.059 9.31445V2244.76M927.294 9.31445V2244.76M993.529 9.31445V2244.76M1059.76 9.31445V2244.76M1126 9.31445V2244.76M1192.24 9.31445V2244.76M1258.47 9.31445V2244.76M1324.71 9.31445V2244.76M1390.94 9.31445V2244.76M1457.18 9.31445V2244.76M1523.41 9.31445V2244.76M1589.65 9.31445V2244.76M1655.88 9.31445V2244.76M1722.12 9.31445V2244.76M1788.35 9.31445V2244.76M1854.59 9.31445V2244.76M1920.82 9.31445V2244.76M1987.06 9.31445V2244.76M2053.29 9.31445V2244.76M2119.53 9.31445V2244.76M2185.76 9.31445V2244.76M7.24447 2185.76H2242.69M7.24447 2119.53H2242.69M7.24447 2053.29H2242.69M7.24447 1987.06H2242.69M7.24446 1920.82H2242.69M7.24446 1854.59H2242.69M7.24446 1788.35H2242.69M7.24445 1722.12H2242.69M7.24445 1655.88H2242.69M7.24445 1589.65H2242.69M7.24445 1523.41H2242.69M7.24444 1457.18H2242.69M7.24444 1390.94H2242.69M7.24444 1324.71H2242.69M7.24444 1258.47H2242.69M7.24443 1192.24H2242.69M7.24443 1126H2242.69M7.24443 1059.76H2242.69M7.24442 993.529H2242.69M7.24442 927.294H2242.69M7.24442 861.059H2242.69M7.24442 794.823H2242.69M7.24441 728.588H2242.69M7.24441 662.353H2242.69M7.24441 596.118H2242.69M7.2444 529.882H2242.69M7.2444 463.647H2242.69M7.2444 397.412H2242.69M7.2444 331.176H2242.69M7.24438 264.941H2242.69M7.24438 198.706H2242.69M7.24438 132.471H2242.69M7.24438 66.2355L2242.69 66.2353" stroke="#333333"/>
</svg>
