<svg width="23" height="23" viewBox="0 0 23 23" fill="none" xmlns="http://www.w3.org/2000/svg">
<path d="M11.4641 8.33936C10.8229 8.27603 10.1778 8.41244 9.61718 8.72989C9.05652 9.04735 8.6077 9.53034 8.33215 10.1127C8.0566 10.6951 7.9678 11.3485 8.07791 11.9833C8.18802 12.6181 8.49165 13.2034 8.94723 13.6589C9.40281 14.1145 9.98807 14.4181 10.6229 14.5283C11.2577 14.6384 11.911 14.5496 12.4934 14.274C13.0758 13.9985 13.5588 13.5496 13.8763 12.989C14.1937 12.4283 14.3301 11.7833 14.2668 11.1421C14.1946 10.4233 13.8761 9.75163 13.3653 9.24083C12.8545 8.73003 12.1828 8.41155 11.4641 8.33936ZM18.9885 11.4492C18.9865 11.7889 18.9615 12.128 18.9138 12.4644L21.1213 14.1958C21.2174 14.2755 21.2822 14.3867 21.3041 14.5096C21.326 14.6325 21.3036 14.7592 21.2409 14.8672L19.1525 18.4805C19.0891 18.5874 18.99 18.6685 18.8726 18.7095C18.7552 18.7505 18.6272 18.7488 18.5109 18.7046L16.3186 17.8218C16.1977 17.7736 16.0667 17.7562 15.9374 17.7712C15.8082 17.7861 15.6846 17.8328 15.5778 17.9072C15.2432 18.1376 14.8917 18.3423 14.5261 18.5195C14.4112 18.5754 14.3117 18.6587 14.2366 18.7621C14.1615 18.8655 14.113 18.9857 14.0954 19.1123L13.7668 21.4507C13.7452 21.5742 13.6814 21.6863 13.5863 21.768C13.4912 21.8497 13.3707 21.8958 13.2453 21.8984H9.06857C8.94529 21.8963 8.82643 21.8522 8.73155 21.7735C8.63667 21.6948 8.57143 21.5861 8.54659 21.4653L8.21847 19.1304C8.20004 19.0024 8.15028 18.881 8.07362 18.7769C7.99695 18.6728 7.89575 18.5892 7.77902 18.5337C7.41388 18.3574 7.06348 18.1522 6.73116 17.9199C6.62476 17.8459 6.50162 17.7995 6.37282 17.7849C6.24402 17.7703 6.11362 17.788 5.99337 17.8364L3.80148 18.7188C3.68532 18.763 3.55728 18.7648 3.43991 18.7239C3.32254 18.683 3.22337 18.602 3.15987 18.4951L1.0715 14.8818C1.00871 14.7739 0.986271 14.6472 1.00818 14.5242C1.03009 14.4013 1.09491 14.2901 1.19112 14.2104L3.05685 12.7456C3.15906 12.6645 3.2394 12.5591 3.29056 12.439C3.34172 12.319 3.36209 12.188 3.34982 12.0581C3.33224 11.8545 3.32149 11.6514 3.32149 11.4478C3.32149 11.2441 3.33175 11.0439 3.34982 10.8447C3.36075 10.7156 3.33938 10.5858 3.28764 10.4669C3.2359 10.3481 3.15541 10.244 3.05343 10.1641L1.18868 8.69922C1.09403 8.61919 1.03057 8.5084 1.00941 8.38627C0.988254 8.26414 1.01075 8.13846 1.07296 8.03125L3.16134 4.41797C3.22476 4.31103 3.32389 4.22991 3.44127 4.18891C3.55865 4.14791 3.68673 4.14966 3.80294 4.19385L5.99532 5.07666C6.11622 5.1248 6.24718 5.14219 6.37645 5.12728C6.50573 5.11236 6.62928 5.06561 6.73605 4.99121C7.07064 4.7608 7.42224 4.55611 7.7878 4.37891C7.90273 4.32305 8.00214 4.23975 8.07725 4.13637C8.15236 4.03298 8.20086 3.9127 8.21847 3.78613L8.54708 1.44775C8.56866 1.32426 8.63247 1.21209 8.72758 1.13042C8.8227 1.04875 8.94323 1.00265 9.06857 1H13.2453C13.3686 1.00213 13.4875 1.04619 13.5823 1.12492C13.6772 1.20365 13.7425 1.31234 13.7673 1.43311L14.0954 3.76807C14.1138 3.89603 14.1636 4.01746 14.2403 4.12155C14.3169 4.22565 14.4181 4.30919 14.5349 4.36475C14.9 4.54099 15.2504 4.74624 15.5827 4.97852C15.6891 5.05255 15.8123 5.09894 15.9411 5.11351C16.0699 5.12809 16.2003 5.11039 16.3205 5.06201L18.5124 4.17969C18.6286 4.13545 18.7566 4.13363 18.874 4.17454C18.9914 4.21545 19.0905 4.29647 19.154 4.40332L21.2424 8.0166C21.3052 8.12455 21.3276 8.25129 21.3057 8.37423C21.2838 8.49718 21.219 8.60837 21.1228 8.68799L19.257 10.1528C19.1544 10.2337 19.0736 10.339 19.022 10.459C18.9704 10.5791 18.9496 10.7102 18.9616 10.8403C18.9777 11.0425 18.9885 11.2456 18.9885 11.4492Z" stroke="#DB3A34" stroke-width="2" stroke-linecap="round" stroke-linejoin="round"/>
</svg>
