<svg width="344" height="390" viewBox="0 0 344 390" fill="none" xmlns="http://www.w3.org/2000/svg">
<circle cx="172" cy="195.481" r="172" fill="#EEE1B3"/>
<path d="M227.4 230.1C227.8 230.7 231 235.8 237 245.4C244.2 257 250 265.3 254.4 270.3C259 275.1 264.6 277.9 271.2 278.7V290.7C267.8 295.3 263.8 298.7 259.2 300.9C254.6 303.1 248.5 304.2 240.9 304.2C230.5 304.2 221.9 302 215.1 297.6C208.5 293.2 203.6 288.5 200.4 283.5C197.4 278.5 193.3 270.8 188.1 260.4C180.9 246 174.1 233.8 167.7 223.8C161.5 213.8 155.1 207.4 148.5 204.6V265.8C148.5 271.4 149.8 275.3 152.4 277.5C155.2 279.7 159.9 280.8 166.5 280.8C166.5 284.4 165.9 287.9 164.7 291.3C163.5 294.7 161.9 297.6 159.9 300H86.4C84.4 297.6 82.8 294.7 81.6 291.3C80.4 287.9 79.8 284.4 79.8 280.8C86.4 280.8 91 279.7 93.6 277.5C96.4 275.3 97.8 271.4 97.8 265.8V124.8C97.8 119.2 96.4 115.3 93.6 113.1C91 110.7 86.4 109.5 79.8 109.5C79.8 106.1 80.4 102.7 81.6 99.3C82.8 95.9 84.4 93 86.4 90.6H159.9C161.9 93 163.5 95.9 164.7 99.3C165.9 102.7 166.5 106.1 166.5 109.5C159.9 109.5 155.2 110.7 152.4 113.1C149.8 115.3 148.5 119.2 148.5 124.8V184.2C153.1 184.2 156.8 184.4 159.6 184.8L201.9 128.7C204.5 125.5 205.8 121.9 205.8 117.9C205.8 115.5 203.9 113.5 200.1 111.9C196.5 110.3 192.6 109.5 188.4 109.5C188.4 106.3 189 103 190.2 99.6C191.4 96.2 193.1 93.2 195.3 90.6H265.2C267.2 93.2 268.8 96.2 270 99.6C271.2 103 271.8 106.3 271.8 109.5C259.2 109.5 249.2 114.3 241.8 123.9L185.1 191.1C194.3 195.3 202 200.4 208.2 206.4C214.6 212.4 221 220.3 227.4 230.1Z" fill="#177E89"/>
</svg>
