<svg version="1.2" xmlns="http://www.w3.org/2000/svg" viewBox="0 0 344 345" width="344" height="345">
	<title>tapi-svg</title>
	<style>
		.s0 { fill: #eee1b3 } 
		.s1 { fill: #177e89 } 
	</style>
	<path id="Layer" class="s0" d="m172 345.5c-95.1 0-172-76.9-172-172 0-95.1 76.9-172 172-172 95.1 0 172 76.9 172 172 0 95.1-76.9 172-172 172z"/>
	<path id="Layer" class="s1" d="m227.4 208.1q0.6 0.9 9.6 15.3 10.8 17.4 17.4 24.9 6.9 7.2 16.8 8.4v12q-5.1 6.9-12 10.2-6.9 3.3-18.3 3.3-15.6 0-25.8-6.6-9.9-6.6-14.7-14.1-4.5-7.5-12.3-23.1-10.8-21.6-20.4-36.6-9.3-15-19.2-19.2v61.2q0 8.4 3.9 11.7 4.2 3.3 14.1 3.3 0 5.4-1.8 10.5-1.8 5.1-4.8 8.7h-73.5q-3-3.6-4.8-8.7-1.8-5.1-1.8-10.5 9.9 0 13.8-3.3 4.2-3.3 4.2-11.7v-141q0-8.4-4.2-11.7-3.9-3.6-13.8-3.6 0-5.1 1.8-10.2 1.8-5.1 4.8-8.7h73.5q3 3.6 4.8 8.7 1.8 5.1 1.8 10.2-9.9 0-14.1 3.6-3.9 3.3-3.9 11.7v59.4q6.9 0 11.1 0.6l42.3-56.1q3.9-4.8 3.9-10.8 0-3.6-5.7-6-5.4-2.4-11.7-2.4 0-4.8 1.8-9.9 1.8-5.1 5.1-9h69.9q3 3.9 4.8 9 1.8 5.1 1.8 9.9-18.9 0-30 14.4l-56.7 67.2q13.8 6.3 23.1 15.3 9.6 9 19.2 23.7z"/>
</svg>